<?xml version="1.0" encoding="UTF-8"?>
<svg id="Capa_1" data-name="Capa 1" xmlns="http://www.w3.org/2000/svg" version="1.1" viewBox="0 0 800 800">
  <defs>
    <style>
      .cls-1 {
        fill: #4c2612;
        stroke-width: 0px;
      }
    </style>
  </defs>
  <path class="cls-1" d="M400,0C179.1,0,0,179.1,0,400s179.1,400,400,400,400-179.1,400-400S620.9,0,400,0ZM400,119.6c73.1,0,132.3,59.2,132.3,132.3s-59.2,132.3-132.3,132.3-132.3-59.2-132.3-132.3c0-73.1,59.2-132.3,132.3-132.3ZM399.9,695.4c-72.9,0-139.7-26.5-191.2-70.5-12.5-10.7-19.8-26.4-19.8-42.9,0-74.1,60-133.4,134.1-133.4h153.9c74.1,0,133.9,59.3,133.9,133.4s-7.2,32.1-19.8,42.8c-51.5,44-118.3,70.5-191.2,70.5Z"/>
</svg>