<?xml version="1.0" encoding="UTF-8"?>
<svg id="Layer_1" data-name="Layer 1" xmlns="http://www.w3.org/2000/svg" version="1.1" viewBox="0 0 2501 2501">
  <defs>
    <style>
      .cls-1 {
        fill: #4c2612;
        fill-rule: evenodd;
        stroke-width: 0px;
      }
    </style>
  </defs>
  <path class="cls-1" d="M1500.9,1796.2h-620.3c-45.6,0-83.5-33.4-89.3-78.6l-38.6-302.4-22.9-179.2h1042.1l-22.9,179.2-38.6,302.4c-5.8,45.2-43.7,78.6-89.3,78.6h-120.1ZM1219,1732.8v-400.5c0-17.5,14.3-31.8,31.8-31.8s31.8,14.3,31.8,31.8v400.5c0,17.5-14.3,31.8-31.8,31.8s-31.8-14.3-31.8-31.8ZM1074.5,1735.9l-19.2-400c-.8-17.5,12.8-32.5,30.3-33.3,17.5-.8,32.5,12.8,33.3,30.3l19.2,400c.8,17.5-12.8,32.5-30.3,33.3-17.5.8-32.5-12.8-33.3-30.3ZM930.4,1740.9l-50.6-397.3c-2.2-17.4,10.2-33.4,27.6-35.6,17.4-2.2,33.4,10.2,35.6,27.6l50.6,397.3c2.2,17.4-10.2,33.4-27.6,35.6-17.4,2.2-33.4-10.2-35.6-27.6ZM1427.2,1735.9l19.2-400c.8-17.5-12.8-32.5-30.3-33.3-17.5-.8-32.5,12.8-33.3,30.3l-19.2,400c-.8,17.5,12.8,32.5,30.3,33.3,17.5.8,32.5-12.8,33.3-30.3ZM1571.3,1740.9l50.6-397.3c2.2-17.4-10.2-33.4-27.6-35.6-17.4-2.2-33.4,10.2-35.6,27.6l-50.6,397.3c-2.2,17.4,10.2,33.4,27.6,35.6s33.4-10.2,35.6-27.6"/>
  <path class="cls-1" d="M701.1,1087.8h379.9l108.6,109.1h-488.5c-30,0-54.6-24.6-54.6-54.6s24.6-54.6,54.6-54.6ZM1311.9,1087.8h488.7c30,0,54.6,24.6,54.6,54.6s-24.6,54.6-54.6,54.6h-488.7c27.7-30.9,27.8-78.2,0-109.1"/>
  <path class="cls-1" d="M1212.2,1180.8l-381.9-383.7h0c-21.2-21.3-21.1-56,.2-77.2h0c21.3-21.2,56-21.1,77.2.2l381.9,383.7h0c21.2,21.3,21.1,56-.2,77.2-21.3,21.2-56,21.1-77.2-.2ZM1250.8,1113.7c-15.8,0-28.6,12.8-28.6,28.6s12.8,28.6,28.6,28.6,28.6-12.8,28.6-28.6-12.8-28.6-28.6-28.6"/>
</svg>